<?xml version="1.0" encoding="UTF-8"?> <svg xmlns="http://www.w3.org/2000/svg" width="260" height="407" viewBox="0 0 260 407" fill="none"> <rect width="260" height="407" fill="#1C1C1D"></rect> <path d="M44.76 59.88V49H50.16V77H44.76V64.56H32.68V77H27.28V49H32.68V59.88H44.76ZM73.6131 69H59.6531C59.8931 70.36 60.4931 71.4267 61.4531 72.2C62.4398 72.9733 63.6531 73.36 65.0931 73.36C66.1598 73.36 67.1598 73.1733 68.0931 72.8C69.0265 72.4 69.7865 71.8533 70.3731 71.16L73.1731 73.68C72.2131 74.8267 70.9998 75.72 69.5331 76.36C68.0665 76.9733 66.4531 77.28 64.6931 77.28C62.7731 77.28 61.0531 76.8933 59.5331 76.12C58.0398 75.3467 56.8665 74.2533 56.0131 72.84C55.1865 71.4267 54.7731 69.8133 54.7731 68C54.7731 66.08 55.1998 64.4 56.0531 62.96C56.9065 61.4933 58.0665 60.3733 59.5331 59.6C61.0265 58.8 62.6665 58.4 64.4531 58.4C66.3465 58.4 67.9731 58.8267 69.3331 59.68C70.7198 60.5067 71.7731 61.6533 72.4931 63.12C73.2398 64.56 73.6131 66.1733 73.6131 67.96V69ZM59.7331 66H68.8531C68.6931 64.96 68.1998 64.1067 67.3731 63.44C66.5731 62.7467 65.5465 62.4 64.2931 62.4C63.1198 62.4 62.1331 62.72 61.3331 63.36C60.5331 63.9733 59.9998 64.8533 59.7331 66ZM90.4166 77H86.0166L89.0966 58.72H93.3366L98.1766 69.32L102.737 58.72H107.097L110.137 77H105.497L103.737 66.32L99.0166 77H96.8966L92.1366 66.52L90.4166 77ZM131.308 69H117.348C117.588 70.36 118.188 71.4267 119.148 72.2C120.135 72.9733 121.348 73.36 122.788 73.36C123.855 73.36 124.855 73.1733 125.788 72.8C126.722 72.4 127.482 71.8533 128.068 71.16L130.868 73.68C129.908 74.8267 128.695 75.72 127.228 76.36C125.762 76.9733 124.148 77.28 122.388 77.28C120.468 77.28 118.748 76.8933 117.228 76.12C115.735 75.3467 114.562 74.2533 113.708 72.84C112.882 71.4267 112.468 69.8133 112.468 68C112.468 66.08 112.895 64.4 113.748 62.96C114.602 61.4933 115.762 60.3733 117.228 59.6C118.722 58.8 120.362 58.4 122.148 58.4C124.042 58.4 125.668 58.8267 127.028 59.68C128.415 60.5067 129.468 61.6533 130.188 63.12C130.935 64.56 131.308 66.1733 131.308 67.96V69ZM117.428 66H126.548C126.388 64.96 125.895 64.1067 125.068 63.44C124.268 62.7467 123.242 62.4 121.988 62.4C120.815 62.4 119.828 62.72 119.028 63.36C118.228 63.9733 117.695 64.8533 117.428 66ZM147.201 58.72H152.161V77H147.201V69.8H139.601V77H134.641V58.72H139.601V65.44H147.201V58.72ZM174.668 69H160.708C160.948 70.36 161.548 71.4267 162.508 72.2C163.494 72.9733 164.708 73.36 166.148 73.36C167.214 73.36 168.214 73.1733 169.148 72.8C170.081 72.4 170.841 71.8533 171.428 71.16L174.228 73.68C173.268 74.8267 172.054 75.72 170.588 76.36C169.121 76.9733 167.508 77.28 165.748 77.28C163.828 77.28 162.108 76.8933 160.588 76.12C159.094 75.3467 157.921 74.2533 157.068 72.84C156.241 71.4267 155.828 69.8133 155.828 68C155.828 66.08 156.254 64.4 157.108 62.96C157.961 61.4933 159.121 60.3733 160.588 59.6C162.081 58.8 163.721 58.4 165.508 58.4C167.401 58.4 169.028 58.8267 170.388 59.68C171.774 60.5067 172.828 61.6533 173.548 63.12C174.294 64.56 174.668 66.1733 174.668 67.96V69ZM160.788 66H169.908C169.748 64.96 169.254 64.1067 168.428 63.44C167.628 62.7467 166.601 62.4 165.348 62.4C164.174 62.4 163.188 62.72 162.388 63.36C161.588 63.9733 161.054 64.8533 160.788 66ZM195.801 69H181.841C182.081 70.36 182.681 71.4267 183.641 72.2C184.627 72.9733 185.841 73.36 187.281 73.36C188.347 73.36 189.347 73.1733 190.281 72.8C191.214 72.4 191.974 71.8533 192.561 71.16L195.361 73.68C194.401 74.8267 193.187 75.72 191.721 76.36C190.254 76.9733 188.641 77.28 186.881 77.28C184.961 77.28 183.241 76.8933 181.721 76.12C180.227 75.3467 179.054 74.2533 178.201 72.84C177.374 71.4267 176.961 69.8133 176.961 68C176.961 66.08 177.387 64.4 178.241 62.96C179.094 61.4933 180.254 60.3733 181.721 59.6C183.214 58.8 184.854 58.4 186.641 58.4C188.534 58.4 190.161 58.8267 191.521 59.68C192.907 60.5067 193.961 61.6533 194.681 63.12C195.427 64.56 195.801 66.1733 195.801 67.96V69ZM181.921 66H191.041C190.881 64.96 190.387 64.1067 189.561 63.44C188.761 62.7467 187.734 62.4 186.481 62.4C185.307 62.4 184.321 62.72 183.521 63.36C182.721 63.9733 182.187 64.8533 181.921 66ZM45.28 113.96C45.28 115.8 44.84 117.44 43.96 118.88C43.1067 120.293 41.88 121.4 40.28 122.2C38.7067 122.973 36.8933 123.36 34.84 123.36C32.8667 123.36 31.08 122.987 29.48 122.24C27.9067 121.467 26.6667 120.387 25.76 119L29.44 116.08C30.6933 117.973 32.5067 118.92 34.88 118.92C36.48 118.92 37.7867 118.467 38.8 117.56C39.8133 116.653 40.32 115.427 40.32 113.88C40.32 112.28 39.7867 111.053 38.72 110.2C37.6533 109.32 36.32 108.88 34.72 108.88C33.6533 108.88 32.6 109.173 31.56 109.76H28.6L30.68 95H43.44V99.56H34.36L33.6 105.12C34.6133 104.96 35.4 104.88 35.96 104.88C37.8 104.88 39.4267 105.267 40.84 106.04C42.2533 106.787 43.3467 107.853 44.12 109.24C44.8933 110.6 45.28 112.173 45.28 113.96ZM58.15 123.28V118.52L58.79 118.6C59.6967 118.6 60.3367 117.88 60.71 116.44C61.11 114.973 61.31 112.493 61.31 109V104.72H75.19V123H70.27V109.08H65.87V111.24C65.87 115.64 65.3367 118.773 64.27 120.64C63.23 122.48 61.6433 123.4 59.51 123.4C59.2433 123.4 58.79 123.36 58.15 123.28ZM97.7538 115H83.7938C84.0338 116.36 84.6338 117.427 85.5938 118.2C86.5804 118.973 87.7938 119.36 89.2338 119.36C90.3004 119.36 91.3004 119.173 92.2338 118.8C93.1671 118.4 93.9271 117.853 94.5138 117.16L97.3138 119.68C96.3538 120.827 95.1404 121.72 93.6738 122.36C92.2071 122.973 90.5938 123.28 88.8338 123.28C86.9138 123.28 85.1938 122.893 83.6738 122.12C82.1804 121.347 81.0071 120.253 80.1538 118.84C79.3271 117.427 78.9137 115.813 78.9137 114C78.9137 112.08 79.3404 110.4 80.1938 108.96C81.0471 107.493 82.2071 106.373 83.6738 105.6C85.1671 104.8 86.8071 104.4 88.5938 104.4C90.4871 104.4 92.1138 104.827 93.4738 105.68C94.8604 106.507 95.9138 107.653 96.6338 109.12C97.3804 110.56 97.7538 112.173 97.7538 113.96V115ZM83.8738 112H92.9938C92.8338 110.96 92.3404 110.107 91.5138 109.44C90.7138 108.747 89.6871 108.4 88.4338 108.4C87.2604 108.4 86.2738 108.72 85.4738 109.36C84.6738 109.973 84.1404 110.853 83.8738 112ZM110.167 123H105.247V109.08H99.3666V104.72H116.047V109.08H110.167V123Z" fill="white"></path> <path d="M24.84 332.56C24.84 331.707 25.0333 330.94 25.42 330.26C25.82 329.567 26.36 329.027 27.04 328.64C27.72 328.24 28.4867 328.04 29.34 328.04C30.1933 328.04 30.96 328.24 31.64 328.64C32.32 329.027 32.8533 329.567 33.24 330.26C33.6267 330.94 33.82 331.707 33.82 332.56C33.82 333.427 33.62 334.213 33.22 334.92C32.8333 335.613 32.3 336.16 31.62 336.56C30.94 336.96 30.18 337.16 29.34 337.16C28.5 337.16 27.7333 336.96 27.04 336.56C26.36 336.147 25.82 335.593 25.42 334.9C25.0333 334.193 24.84 333.413 24.84 332.56ZM32.38 332.56C32.38 331.6 32.1 330.827 31.54 330.24C30.98 329.64 30.2467 329.34 29.34 329.34C28.4333 329.34 27.6933 329.64 27.12 330.24C26.56 330.827 26.28 331.6 26.28 332.56C26.28 333.533 26.5667 334.327 27.14 334.94C27.7133 335.553 28.4467 335.86 29.34 335.86C30.2333 335.86 30.96 335.553 31.52 334.94C32.0933 334.327 32.38 333.533 32.38 332.56ZM37.6041 337H36.1641V328.2H43.4441V337H42.0041V329.5H37.6041V337ZM49.8575 331.18C51.0442 331.18 51.9308 331.413 52.5175 331.88C53.1175 332.347 53.4175 333.073 53.4175 334.06C53.4175 335.047 53.1108 335.787 52.4975 336.28C51.8975 336.76 50.9508 337 49.6575 337H46.4375V328.2H47.8775V331.18H49.8575ZM56.0975 337H54.6575V328.2H56.0975V337ZM49.4375 335.7C50.2642 335.7 50.8908 335.593 51.3175 335.38C51.7575 335.167 51.9775 334.74 51.9775 334.1C51.9775 333.5 51.7775 333.08 51.3775 332.84C50.9908 332.6 50.3975 332.48 49.5975 332.48H47.8775V335.7H49.4375ZM62.3138 337H60.8738V329.5H57.9938V328.2H65.1938V329.5H62.3138V337ZM81.1369 332.6C81.1369 333.52 80.9435 334.327 80.5569 335.02C80.1702 335.7 79.6502 336.227 78.9969 336.6C78.3435 336.973 77.6369 337.16 76.8769 337.16C76.1702 337.16 75.5435 337.013 74.9969 336.72C74.4502 336.413 74.0369 336.013 73.7569 335.52V341.8H72.3169V328.2H73.6769V329.76C73.8769 329.28 74.2569 328.873 74.8169 328.54C75.3902 328.207 76.0769 328.04 76.8769 328.04C77.6635 328.04 78.3769 328.227 79.0169 328.6C79.6702 328.973 80.1835 329.507 80.5569 330.2C80.9435 330.893 81.1369 331.693 81.1369 332.6ZM79.6369 332.58C79.6369 331.58 79.3635 330.8 78.8169 330.24C78.2702 329.667 77.5635 329.38 76.6969 329.38C76.0835 329.38 75.5502 329.527 75.0969 329.82C74.6569 330.1 74.3235 330.473 74.0969 330.94C73.8702 331.407 73.7569 331.913 73.7569 332.46V332.66C73.7569 333.193 73.8702 333.707 74.0969 334.2C74.3369 334.68 74.6835 335.073 75.1369 335.38C75.5902 335.673 76.1235 335.82 76.7369 335.82C77.6035 335.82 78.3035 335.527 78.8369 334.94C79.3702 334.34 79.6369 333.553 79.6369 332.58ZM90.2688 328.2H91.6288V337H90.2688V335.36C90.0154 335.893 89.6021 336.327 89.0288 336.66C88.4554 336.993 87.8021 337.16 87.0688 337.16C86.3088 337.16 85.6021 336.973 84.9488 336.6C84.2954 336.227 83.7754 335.7 83.3888 335.02C83.0021 334.327 82.8088 333.52 82.8088 332.6C82.8088 331.693 82.9954 330.893 83.3688 330.2C83.7554 329.507 84.2688 328.973 84.9087 328.6C85.5621 328.227 86.2821 328.04 87.0688 328.04C87.8688 328.04 88.5488 328.207 89.1088 328.54C89.6821 328.873 90.0688 329.28 90.2688 329.76V328.2ZM90.1888 332.66V332.46C90.1888 331.913 90.0754 331.407 89.8488 330.94C89.6221 330.473 89.2821 330.1 88.8288 329.82C88.3888 329.527 87.8621 329.38 87.2487 329.38C86.3821 329.38 85.6754 329.667 85.1288 330.24C84.5821 330.8 84.3088 331.58 84.3088 332.58C84.3088 333.553 84.5754 334.34 85.1088 334.94C85.6421 335.527 86.3421 335.82 87.2088 335.82C87.8221 335.82 88.3554 335.673 88.8088 335.38C89.2621 335.073 89.6021 334.68 89.8288 334.2C90.0688 333.707 90.1888 333.193 90.1888 332.66ZM103.001 332.64C103.001 333.573 102.801 334.38 102.401 335.06C102.001 335.74 101.467 336.26 100.801 336.62C100.134 336.98 99.4006 337.16 98.6006 337.16C96.9073 337.16 95.714 336.627 95.0206 335.56C94.3273 334.48 93.9806 332.813 93.9806 330.56C93.9806 327.96 94.474 326.12 95.4606 325.04C96.4606 323.947 97.8073 323.4 99.5006 323.4C100.007 323.4 100.394 323.347 100.661 323.24C100.941 323.133 101.181 322.92 101.381 322.6L102.521 323.38C102.347 323.913 102.021 324.287 101.541 324.5C101.074 324.713 100.407 324.82 99.5406 324.82C98.6473 324.82 97.9273 324.947 97.3806 325.2C96.834 325.453 96.394 325.94 96.0606 326.66C95.7406 327.367 95.5406 328.407 95.4606 329.78C96.1673 328.647 97.254 328.08 98.7206 328.08C99.5873 328.08 100.341 328.28 100.981 328.68C101.634 329.067 102.134 329.607 102.481 330.3C102.827 330.993 103.001 331.773 103.001 332.64ZM101.501 332.62C101.501 331.647 101.234 330.867 100.701 330.28C100.181 329.68 99.454 329.38 98.5206 329.38C97.614 329.38 96.9006 329.673 96.3806 330.26C95.874 330.833 95.6206 331.613 95.6206 332.6C95.6206 333.627 95.8873 334.427 96.4206 335C96.9673 335.573 97.6873 335.86 98.5806 335.86C99.4606 335.86 100.167 335.567 100.701 334.98C101.234 334.393 101.501 333.607 101.501 332.62ZM104.684 332.56C104.684 331.707 104.877 330.94 105.264 330.26C105.664 329.567 106.204 329.027 106.884 328.64C107.564 328.24 108.33 328.04 109.184 328.04C110.037 328.04 110.804 328.24 111.484 328.64C112.164 329.027 112.697 329.567 113.084 330.26C113.47 330.94 113.664 331.707 113.664 332.56C113.664 333.427 113.464 334.213 113.064 334.92C112.677 335.613 112.144 336.16 111.464 336.56C110.784 336.96 110.024 337.16 109.184 337.16C108.344 337.16 107.577 336.96 106.884 336.56C106.204 336.147 105.664 335.593 105.264 334.9C104.877 334.193 104.684 333.413 104.684 332.56ZM112.224 332.56C112.224 331.6 111.944 330.827 111.384 330.24C110.824 329.64 110.09 329.34 109.184 329.34C108.277 329.34 107.537 329.64 106.964 330.24C106.404 330.827 106.124 331.6 106.124 332.56C106.124 333.533 106.41 334.327 106.984 334.94C107.557 335.553 108.29 335.86 109.184 335.86C110.077 335.86 110.804 335.553 111.364 334.94C111.937 334.327 112.224 333.533 112.224 332.56ZM118.837 337H117.397V329.5H114.517V328.2H121.717V329.5H118.837V337ZM127.045 331.18C128.232 331.18 129.118 331.413 129.705 331.88C130.305 332.347 130.605 333.073 130.605 334.06C130.605 335.047 130.298 335.787 129.685 336.28C129.085 336.76 128.138 337 126.845 337H123.625V328.2H125.065V331.18H127.045ZM133.285 337H131.845V328.2H133.285V337ZM126.625 335.7C127.452 335.7 128.078 335.593 128.505 335.38C128.945 335.167 129.165 334.74 129.165 334.1C129.165 333.5 128.965 333.08 128.565 332.84C128.178 332.6 127.585 332.48 126.785 332.48H125.065V335.7H126.625ZM148.377 328.4L145.017 332.24L149.177 336.8V337H147.517L143.757 332.9H142.917V337H141.477V328.2H142.917V331.68H143.897L146.837 328.2H148.377V328.4ZM157.573 328.2H158.933V337H157.573V335.36C157.32 335.893 156.907 336.327 156.333 336.66C155.76 336.993 155.107 337.16 154.373 337.16C153.613 337.16 152.907 336.973 152.253 336.6C151.6 336.227 151.08 335.7 150.693 335.02C150.307 334.327 150.113 333.52 150.113 332.6C150.113 331.693 150.3 330.893 150.673 330.2C151.06 329.507 151.573 328.973 152.213 328.6C152.867 328.227 153.587 328.04 154.373 328.04C155.173 328.04 155.853 328.207 156.413 328.54C156.987 328.873 157.373 329.28 157.573 329.76V328.2ZM157.493 332.66V332.46C157.493 331.913 157.38 331.407 157.153 330.94C156.927 330.473 156.587 330.1 156.133 329.82C155.693 329.527 155.167 329.38 154.553 329.38C153.687 329.38 152.98 329.667 152.433 330.24C151.887 330.8 151.613 331.58 151.613 332.58C151.613 333.553 151.88 334.34 152.413 334.94C152.947 335.527 153.647 335.82 154.513 335.82C155.127 335.82 155.66 335.673 156.113 335.38C156.567 335.073 156.907 334.68 157.133 334.2C157.373 333.707 157.493 333.193 157.493 332.66ZM172.105 328.4L169.525 332.28L172.745 336.8V337H171.165L168.265 332.88H167.325V337H165.885V332.88H164.945L162.085 337H160.545V336.8L163.705 332.36L161.045 328.4V328.2H162.505L164.745 331.66H165.885V328.2H167.325V331.66H168.465L170.705 328.2H172.105V328.4ZM181.348 335.7H182.968V339.2H181.668V337H174.328V339.2H173.028V335.7H174.128C174.474 335.02 174.734 334.233 174.908 333.34C175.081 332.447 175.168 331.38 175.168 330.14V328.2H181.348V335.7ZM176.548 330.7C176.548 332.553 176.261 334.22 175.688 335.7H179.908V329.5H176.548V330.7ZM184.117 332.56C184.117 331.707 184.311 330.94 184.697 330.26C185.097 329.567 185.637 329.027 186.317 328.64C186.997 328.24 187.764 328.04 188.617 328.04C189.471 328.04 190.237 328.24 190.917 328.64C191.597 329.027 192.131 329.567 192.517 330.26C192.904 330.94 193.097 331.707 193.097 332.56C193.097 333.427 192.897 334.213 192.497 334.92C192.111 335.613 191.577 336.16 190.897 336.56C190.217 336.96 189.457 337.16 188.617 337.16C187.777 337.16 187.011 336.96 186.317 336.56C185.637 336.147 185.097 335.593 184.697 334.9C184.311 334.193 184.117 333.413 184.117 332.56ZM191.657 332.56C191.657 331.6 191.377 330.827 190.817 330.24C190.257 329.64 189.524 329.34 188.617 329.34C187.711 329.34 186.971 329.64 186.397 330.24C185.837 330.827 185.557 331.6 185.557 332.56C185.557 333.533 185.844 334.327 186.417 334.94C186.991 335.553 187.724 335.86 188.617 335.86C189.511 335.86 190.237 335.553 190.797 334.94C191.371 334.327 191.657 333.533 191.657 332.56ZM196.881 337H195.441V328.2H201.121V329.5H196.881V337ZM201.969 332.56C201.969 331.707 202.162 330.94 202.549 330.26C202.949 329.567 203.489 329.027 204.169 328.64C204.849 328.24 205.616 328.04 206.469 328.04C207.322 328.04 208.089 328.24 208.769 328.64C209.449 329.027 209.982 329.567 210.369 330.26C210.756 330.94 210.949 331.707 210.949 332.56C210.949 333.427 210.749 334.213 210.349 334.92C209.962 335.613 209.429 336.16 208.749 336.56C208.069 336.96 207.309 337.16 206.469 337.16C205.629 337.16 204.862 336.96 204.169 336.56C203.489 336.147 202.949 335.593 202.549 334.9C202.162 334.193 201.969 333.413 201.969 332.56ZM209.509 332.56C209.509 331.6 209.229 330.827 208.669 330.24C208.109 329.64 207.376 329.34 206.469 329.34C205.562 329.34 204.822 329.64 204.249 330.24C203.689 330.827 203.409 331.6 203.409 332.56C203.409 333.533 203.696 334.327 204.269 334.94C204.842 335.553 205.576 335.86 206.469 335.86C207.362 335.86 208.089 335.553 208.649 334.94C209.222 334.327 209.509 333.533 209.509 332.56ZM30.52 353.2H31.96V362H30.52V358.5C29.8933 358.753 29.16 358.88 28.32 358.88C27.2 358.88 26.34 358.633 25.74 358.14C25.1533 357.647 24.86 356.847 24.86 355.74V353.2H26.3V355.66C26.3 356.327 26.4533 356.813 26.76 357.12C27.08 357.427 27.66 357.58 28.5 357.58C29.2467 357.58 29.92 357.467 30.52 357.24V353.2ZM33.5931 362.08V360.6C33.6598 360.613 33.7398 360.62 33.8331 360.62C34.2865 360.62 34.6465 360.273 34.9131 359.58C35.1931 358.887 35.3331 357.6 35.3331 355.72V353.2H41.2931V362H39.8531V354.5H36.7131V356.44C36.7131 358.507 36.4665 359.973 35.9731 360.84C35.4798 361.693 34.7998 362.12 33.9331 362.12C33.7865 362.12 33.6731 362.107 33.5931 362.08ZM52.3691 357.88H45.0891C45.1424 358.787 45.4624 359.513 46.0491 360.06C46.6491 360.593 47.3891 360.86 48.2691 360.86C48.8291 360.86 49.3491 360.753 49.8291 360.54C50.3224 360.313 50.7157 360.007 51.0091 359.62L51.9491 360.48C51.5357 361.027 50.9957 361.447 50.3291 361.74C49.6624 362.02 48.9491 362.16 48.1891 362.16C47.3224 362.16 46.5424 361.973 45.8491 361.6C45.1557 361.227 44.6091 360.7 44.2091 360.02C43.8224 359.327 43.6291 358.52 43.6291 357.6C43.6291 356.653 43.8357 355.84 44.2491 355.16C44.6624 354.467 45.2091 353.94 45.8891 353.58C46.5824 353.22 47.3291 353.04 48.1291 353.04C48.9957 353.04 49.7491 353.247 50.3891 353.66C51.0291 354.073 51.5157 354.613 51.8491 355.28C52.1957 355.947 52.3691 356.647 52.3691 357.38V357.88ZM45.1691 356.66H50.8691C50.7357 355.98 50.4024 355.427 49.8691 355C49.3357 354.56 48.7091 354.34 47.9891 354.34C47.2957 354.34 46.6891 354.547 46.1691 354.96C45.6624 355.373 45.3291 355.94 45.1691 356.66ZM60.6048 353.2H62.0448V362H60.6048V357.96H55.9048V362H54.4648V353.2H55.9048V356.66H60.6048V353.2ZM71.8508 353.2H73.2108V362H71.8508V360.36C71.5974 360.893 71.1841 361.327 70.6108 361.66C70.0374 361.993 69.3841 362.16 68.6508 362.16C67.8908 362.16 67.1841 361.973 66.5308 361.6C65.8774 361.227 65.3574 360.7 64.9708 360.02C64.5841 359.327 64.3908 358.52 64.3908 357.6C64.3908 356.693 64.5774 355.893 64.9508 355.2C65.3374 354.507 65.8508 353.973 66.4908 353.6C67.1441 353.227 67.8641 353.04 68.6508 353.04C69.4508 353.04 70.1308 353.207 70.6908 353.54C71.2641 353.873 71.6508 354.28 71.8508 354.76V353.2ZM71.7708 357.66V357.46C71.7708 356.913 71.6574 356.407 71.4308 355.94C71.2041 355.473 70.8641 355.1 70.4108 354.82C69.9708 354.527 69.4441 354.38 68.8308 354.38C67.9641 354.38 67.2574 354.667 66.7108 355.24C66.1641 355.8 65.8908 356.58 65.8908 357.58C65.8908 358.553 66.1574 359.34 66.6908 359.94C67.2241 360.527 67.9241 360.82 68.7908 360.82C69.4041 360.82 69.9374 360.673 70.3908 360.38C70.8441 360.073 71.1841 359.68 71.4108 359.2C71.6508 358.707 71.7708 358.193 71.7708 357.66ZM88.318 353.4L84.958 357.24L89.118 361.8V362H87.458L83.698 357.9H82.858V362H81.418V353.2H82.858V356.68H83.838L86.778 353.2H88.318V353.4ZM89.6642 357.56C89.6642 356.707 89.8576 355.94 90.2442 355.26C90.6442 354.567 91.1842 354.027 91.8642 353.64C92.5442 353.24 93.3109 353.04 94.1642 353.04C95.0176 353.04 95.7842 353.24 96.4642 353.64C97.1442 354.027 97.6776 354.567 98.0642 355.26C98.4509 355.94 98.6442 356.707 98.6442 357.56C98.6442 358.427 98.4442 359.213 98.0442 359.92C97.6576 360.613 97.1242 361.16 96.4442 361.56C95.7642 361.96 95.0042 362.16 94.1642 362.16C93.3242 362.16 92.5576 361.96 91.8642 361.56C91.1842 361.147 90.6442 360.593 90.2442 359.9C89.8576 359.193 89.6642 358.413 89.6642 357.56ZM97.2042 357.56C97.2042 356.6 96.9242 355.827 96.3642 355.24C95.8042 354.64 95.0709 354.34 94.1642 354.34C93.2576 354.34 92.5176 354.64 91.9442 355.24C91.3842 355.827 91.1042 356.6 91.1042 357.56C91.1042 358.533 91.3909 359.327 91.9642 359.94C92.5376 360.553 93.2709 360.86 94.1642 360.86C95.0576 360.86 95.7842 360.553 96.3442 359.94C96.9176 359.327 97.2042 358.533 97.2042 357.56ZM101.528 362H100.208L101.748 353.2H102.668L105.588 359.52L108.448 353.2H109.368L110.908 362H109.548L108.528 355.9L105.688 362H105.348L102.548 356.02L101.528 362ZM119.937 353.2H121.297V362H119.937V360.36C119.683 360.893 119.27 361.327 118.697 361.66C118.123 361.993 117.47 362.16 116.737 362.16C115.977 362.16 115.27 361.973 114.617 361.6C113.963 361.227 113.443 360.7 113.057 360.02C112.67 359.327 112.477 358.52 112.477 357.6C112.477 356.693 112.663 355.893 113.037 355.2C113.423 354.507 113.937 353.973 114.577 353.6C115.23 353.227 115.95 353.04 116.737 353.04C117.537 353.04 118.217 353.207 118.777 353.54C119.35 353.873 119.737 354.28 119.937 354.76V353.2ZM119.857 357.66V357.46C119.857 356.913 119.743 356.407 119.517 355.94C119.29 355.473 118.95 355.1 118.497 354.82C118.057 354.527 117.53 354.38 116.917 354.38C116.05 354.38 115.343 354.667 114.797 355.24C114.25 355.8 113.977 356.58 113.977 357.58C113.977 358.553 114.243 359.34 114.777 359.94C115.31 360.527 116.01 360.82 116.877 360.82C117.49 360.82 118.023 360.673 118.477 360.38C118.93 360.073 119.27 359.68 119.497 359.2C119.737 358.707 119.857 358.193 119.857 357.66ZM130.449 353.2H131.889V362H130.449V357.96H125.749V362H124.309V353.2H125.749V356.66H130.449V353.2ZM141.895 360.7H143.515V364.2H142.215V362H134.875V364.2H133.575V360.7H134.675C135.021 360.02 135.281 359.233 135.455 358.34C135.628 357.447 135.715 356.38 135.715 355.14V353.2H141.895V360.7ZM137.095 355.7C137.095 357.553 136.808 359.22 136.235 360.7H140.455V354.5H137.095V355.7ZM148.744 356.18C149.931 356.18 150.818 356.413 151.404 356.88C152.004 357.347 152.304 358.073 152.304 359.06C152.304 360.047 151.998 360.787 151.384 361.28C150.784 361.76 149.838 362 148.544 362H145.324V353.2H146.764V356.18H148.744ZM154.984 362H153.544V353.2H154.984V362ZM148.324 360.7C149.151 360.7 149.778 360.593 150.204 360.38C150.644 360.167 150.864 359.74 150.864 359.1C150.864 358.5 150.664 358.08 150.264 357.84C149.878 357.6 149.284 357.48 148.484 357.48H146.764V360.7H148.324ZM165.576 360.7H171.636V362H163.176V361.8L167.396 356.22L167.776 355.72C168.602 354.64 169.162 353.84 169.456 353.32C169.749 352.8 169.896 352.24 169.896 351.64C169.896 350.867 169.669 350.267 169.216 349.84C168.776 349.413 168.182 349.2 167.436 349.2C166.249 349.2 165.196 349.753 164.276 350.86L163.396 349.96C163.809 349.373 164.376 348.88 165.096 348.48C165.816 348.08 166.642 347.88 167.576 347.88C168.362 347.88 169.042 348.04 169.616 348.36C170.202 348.68 170.642 349.113 170.936 349.66C171.242 350.193 171.396 350.793 171.396 351.46C171.396 351.953 171.309 352.427 171.136 352.88C170.962 353.32 170.722 353.76 170.416 354.2C170.122 354.64 169.656 355.287 169.016 356.14L168.616 356.66L165.576 360.7ZM174.655 355.02C174.655 353.54 174.855 352.26 175.255 351.18C175.655 350.1 176.195 349.28 176.875 348.72C177.569 348.16 178.335 347.88 179.175 347.88C180.122 347.88 180.935 348.173 181.615 348.76C182.309 349.347 182.835 350.173 183.195 351.24C183.555 352.307 183.735 353.553 183.735 354.98C183.735 356.46 183.535 357.74 183.135 358.82C182.749 359.9 182.209 360.72 181.515 361.28C180.835 361.84 180.075 362.12 179.235 362.12C178.289 362.12 177.469 361.827 176.775 361.24C176.082 360.653 175.555 359.827 175.195 358.76C174.835 357.693 174.655 356.447 174.655 355.02ZM182.235 354.98C182.235 353.087 181.955 351.667 181.395 350.72C180.849 349.76 180.109 349.28 179.175 349.28C178.295 349.28 177.569 349.753 176.995 350.7C176.435 351.647 176.155 353.087 176.155 355.02C176.155 356.913 176.429 358.34 176.975 359.3C177.535 360.247 178.289 360.72 179.235 360.72C180.115 360.72 180.835 360.247 181.395 359.3C181.955 358.353 182.235 356.913 182.235 354.98ZM189.595 348H191.075L186.115 366.8H184.635L189.595 348ZM192.195 350.86V349.36L196.255 347.8V362H194.815V349.86L192.195 350.86ZM199.968 355.02C199.968 353.54 200.168 352.26 200.568 351.18C200.968 350.1 201.508 349.28 202.188 348.72C202.881 348.16 203.648 347.88 204.488 347.88C205.435 347.88 206.248 348.173 206.928 348.76C207.621 349.347 208.148 350.173 208.508 351.24C208.868 352.307 209.048 353.553 209.048 354.98C209.048 356.46 208.848 357.74 208.448 358.82C208.061 359.9 207.521 360.72 206.828 361.28C206.148 361.84 205.388 362.12 204.548 362.12C203.601 362.12 202.781 361.827 202.088 361.24C201.395 360.653 200.868 359.827 200.508 358.76C200.148 357.693 199.968 356.447 199.968 355.02ZM207.548 354.98C207.548 353.087 207.268 351.667 206.708 350.72C206.161 349.76 205.421 349.28 204.488 349.28C203.608 349.28 202.881 349.753 202.308 350.7C201.748 351.647 201.468 353.087 201.468 355.02C201.468 356.913 201.741 358.34 202.288 359.3C202.848 360.247 203.601 360.72 204.548 360.72C205.428 360.72 206.148 360.247 206.708 359.3C207.268 358.353 207.548 356.913 207.548 354.98Z" fill="#EDEDED"></path> </svg> 