<?xml version="1.0" encoding="UTF-8"?> <svg xmlns="http://www.w3.org/2000/svg" width="32" height="32" viewBox="0 0 32 32" fill="none"> <circle cx="16" cy="16" r="16" fill="#1C1C1D"></circle> <path d="M17.0028 32H14.9991C14.932 31.9767 14.863 31.9596 14.7928 31.9491C13.441 31.8655 12.1079 31.59 10.8337 31.1309C5.02334 28.9782 1.49559 24.8635 0.250471 18.787C0.130245 18.2026 0.0834904 17.5965 0 17.0013V14.9977C0.0183679 14.9075 0.0417455 14.8174 0.055104 14.7264C0.162807 14.0067 0.222084 13.2771 0.380716 12.5683C0.83612 10.4798 1.7062 8.50391 2.93938 6.75782C4.17256 5.01173 5.74374 3.53095 7.55982 2.40325C9.37589 1.27554 11.3999 0.52386 13.5119 0.192753C15.6238 -0.138354 17.7808 -0.0421472 19.8549 0.475671C28.1922 2.54523 33.3352 10.6916 31.6963 19.1151C30.4439 25.5642 25.2341 30.6534 18.7553 31.7546C18.1767 31.8539 17.5881 31.919 17.0028 32ZM14.2209 23.9947V18.9598C15.3731 18.9598 16.486 18.9598 17.5989 18.9598C17.8411 18.9598 17.7935 19.1268 17.7935 19.262C17.7935 20.7091 17.7935 22.1561 17.7935 23.6032V23.9847H23.1419C23.1494 23.8937 23.1619 23.8127 23.1619 23.7343C23.1619 20.88 23.1577 18.0265 23.1694 15.173C23.1694 14.905 23.0258 14.8725 22.8396 14.819C19.451 13.8506 16.0616 12.8828 12.6713 11.9155C12.4376 11.8495 12.3908 11.7401 12.3933 11.5239C12.4025 10.472 12.3975 9.42013 12.3975 8.36823V8.01927H8.86251V23.9947H14.2209Z" fill="white"></path> </svg> 