<?xml version="1.0" encoding="UTF-8"?> <svg xmlns="http://www.w3.org/2000/svg" width="32" height="32" viewBox="0 0 32 32" fill="none"> <circle cx="16" cy="16" r="16" fill="white"></circle> <path fill-rule="evenodd" clip-rule="evenodd" d="M16 32C24.8366 32 32 24.8366 32 16C32 7.16344 24.8366 0 16 0C7.16344 0 0 7.16344 0 16C0 24.8366 7.16344 32 16 32ZM16 7C13.5553 7 13.2493 7.00982 12.2895 7.054H12.2887C11.3315 7.09818 10.6769 7.25036 10.1042 7.47209C9.50402 7.69827 8.9604 8.05259 8.51118 8.51036C8.0531 8.9598 7.6985 9.5037 7.47209 10.1042C7.25036 10.6769 7.09736 11.3315 7.054 12.2904C7.01064 13.2493 7 13.5553 7 16C7 18.4439 7.00982 18.7499 7.054 19.7113C7.09818 20.6685 7.25036 21.3231 7.47209 21.8958C7.69817 22.4963 8.05249 23.0402 8.51036 23.4896C8.96022 23.9472 9.50439 24.3012 10.105 24.5271C10.6777 24.7496 11.3323 24.9026 12.2895 24.946C13.2493 24.9894 13.5553 25 16 25C18.4447 25 18.7507 24.9902 19.7113 24.946C20.6685 24.9018 21.3231 24.7496 21.8958 24.5271C22.4955 24.3013 23.0396 23.9478 23.4896 23.4896C23.9472 23.0398 24.3013 22.4956 24.5271 21.895C24.7496 21.3223 24.9026 20.6677 24.946 19.7105C24.9894 18.7507 25 18.4447 25 16C25 13.5561 24.9902 13.2501 24.946 12.2887C24.9018 11.3315 24.7496 10.6769 24.5271 10.1042C24.3013 9.50364 23.9478 8.96036 23.4896 8.51118C23.0396 8.053 22.4955 7.69873 21.8958 7.47209C21.3231 7.25036 20.6685 7.09736 19.7096 7.054C18.7507 7.01064 18.4447 7 16 7ZM16 8.62164C18.403 8.62164 18.6877 8.63064 19.6368 8.674C20.5147 8.71409 20.9909 8.86055 21.3084 8.98409C21.6992 9.12826 22.0528 9.35806 22.3434 9.65664C22.6584 9.97164 22.8523 10.2719 23.0159 10.6916C23.1395 11.0091 23.2859 11.4853 23.326 12.3632C23.3694 13.3123 23.3784 13.597 23.3784 16C23.3784 18.403 23.3694 18.6877 23.326 19.6368C23.2859 20.5147 23.1395 20.9909 23.0159 21.3084C22.8719 21.6986 22.642 22.0529 22.3434 22.3434C22.0284 22.6584 21.7281 22.8523 21.3084 23.0159C20.9909 23.1395 20.5147 23.2859 19.6368 23.326C18.6877 23.3694 18.4038 23.3784 16 23.3784C13.5962 23.3784 13.3123 23.3694 12.3632 23.326C11.4853 23.2859 11.0091 23.1395 10.6916 23.0159C10.3014 22.8719 9.94709 22.642 9.65664 22.3434C9.358 22.0529 9.12809 21.6986 8.98409 21.3084C8.86055 20.9909 8.71409 20.5147 8.674 19.6368C8.63064 18.6877 8.62164 18.403 8.62164 16C8.62164 13.597 8.63064 13.3123 8.674 12.3632C8.71409 11.4853 8.86055 11.0091 8.98409 10.6916C9.12824 10.3008 9.35804 9.94713 9.65664 9.65664C9.97164 9.34164 10.2719 9.14773 10.6916 8.98409C11.0091 8.86055 11.4853 8.71409 12.3632 8.674C13.3123 8.63064 13.597 8.62164 16 8.62164ZM16.8729 18.8765C16.2073 19.0778 15.4924 19.0417 14.8505 18.7745C14.4404 18.6044 14.0731 18.3456 13.7751 18.0166C13.4771 17.6876 13.2558 17.2966 13.127 16.8718C12.9982 16.447 12.9652 15.9989 13.0304 15.5598C13.0956 15.1207 13.2573 14.7015 13.504 14.3324C13.7506 13.9633 14.076 13.6535 14.4567 13.4253C14.8375 13.1971 15.2641 13.0561 15.7059 13.0125C16.1476 12.9689 16.5936 13.0238 17.0115 13.1733C17.4295 13.3228 17.8092 13.563 18.1232 13.8768C18.6157 14.3677 18.9226 15.0144 18.9913 15.7064C19.06 16.3983 18.8864 17.0927 18.5 17.6709C18.1137 18.2491 17.5386 18.6752 16.8729 18.8765ZM14.2297 11.7261C13.6684 11.9586 13.1585 12.2993 12.7289 12.7289C11.8614 13.5965 11.374 14.7731 11.374 16C11.374 17.2269 11.8614 18.4035 12.7289 19.2711C13.5965 20.1386 14.7731 20.626 16 20.626C17.2269 20.626 18.4035 20.1386 19.2711 19.2711C19.7007 18.8415 20.0414 18.3316 20.2739 17.7703C20.5064 17.209 20.626 16.6075 20.626 16C20.626 15.3925 20.5064 14.791 20.2739 14.2297C20.0414 13.6684 19.7007 13.1585 19.2711 12.7289C18.8415 12.2993 18.3316 11.9586 17.7703 11.7261C17.209 11.4936 16.6075 11.374 16 11.374C15.3925 11.374 14.791 11.4936 14.2297 11.7261ZM21.9026 11.7078C21.8437 11.8417 21.7584 11.9625 21.652 12.0629C21.445 12.2582 21.17 12.3651 20.8854 12.361C20.6008 12.3568 20.3291 12.2419 20.1279 12.0407C19.9266 11.8394 19.8117 11.5677 19.8076 11.2831C19.8034 10.9986 19.9103 10.7236 20.1056 10.5165C20.2061 10.4101 20.3268 10.3249 20.4607 10.2659C20.5947 10.207 20.7391 10.1755 20.8854 10.1734C21.0317 10.1713 21.177 10.1985 21.3126 10.2535C21.4482 10.3085 21.5714 10.3902 21.6749 10.4937C21.7784 10.5971 21.86 10.7203 21.915 10.8559C21.97 10.9915 21.9973 11.1368 21.9952 11.2831C21.993 11.4294 21.9616 11.5739 21.9026 11.7078Z" fill="#1C1C1D"></path> <circle cx="16" cy="16" r="15.5" stroke="white"></circle> </svg> 