<?xml version="1.0" encoding="UTF-8"?> <svg xmlns="http://www.w3.org/2000/svg" width="174" height="18" viewBox="0 0 174 18" fill="none"> <path d="M5.68187 13.0892L8.09348 10.758C9.92044 9 10.2676 7.81527 10.2676 6.51593C10.2676 4.0318 8.23963 2.44588 5.29822 2.44588C2.77704 2.44588 0.968301 3.55411 0 5.23565L2.68569 6.80252C3.19719 5.9427 4.03764 5.50319 4.96937 5.50319C6.06553 5.50319 6.6136 6.01913 6.6136 6.87895C6.6136 7.43314 6.46746 8.04455 5.44437 9.03825L0.657722 13.7197V16.0892H10.6147V13.0892H5.68187ZM17.3013 16.3567C20.5534 16.3567 22.9284 13.8153 22.9284 9.40126C22.9284 4.98725 20.5534 2.44588 17.3013 2.44588C14.0311 2.44588 11.656 4.98725 11.656 9.40126C11.656 13.8153 14.0311 16.3567 17.3013 16.3567ZM17.3013 13.2612C16.1321 13.2612 15.2917 12.2102 15.2917 9.40126C15.2917 6.59237 16.1321 5.54136 17.3013 5.54136C18.4524 5.54136 19.2927 6.59237 19.2927 9.40126C19.2927 12.2102 18.4524 13.2612 17.3013 13.2612ZM22.8736 18H25.9612L31.9901 0H28.9026L22.8736 18ZM31.7892 2.71334V5.63692H34.1642V16.0892H37.7817V2.71334H31.7892ZM45.3452 16.3567C48.5973 16.3567 50.9723 13.8153 50.9723 9.40126C50.9723 4.98725 48.5973 2.44588 45.3452 2.44588C42.0749 2.44588 39.6999 4.98725 39.6999 9.40126C39.6999 13.8153 42.0749 16.3567 45.3452 16.3567ZM45.3452 13.2612C44.176 13.2612 43.3356 12.2102 43.3356 9.40126C43.3356 6.59237 44.176 5.54136 45.3452 5.54136C46.4962 5.54136 47.3366 6.59237 47.3366 9.40126C47.3366 12.2102 46.4962 13.2612 45.3452 13.2612ZM66.5745 12.7452H59.7782L58.3715 16.0892H56.4897L62.2812 2.71334H64.0899L69.8996 16.0892H67.9813L66.5745 12.7452ZM65.9351 11.2165L63.1763 4.66242L60.4177 11.2165H65.9351ZM80.3498 16.0892L77.5911 11.9809C77.2501 12.0064 76.9821 12.0191 76.7872 12.0191H73.6266V16.0892H71.7996V2.71334H76.7872C78.4437 2.71334 79.7469 3.12735 80.6969 3.95537C81.647 4.78339 82.122 5.92357 82.122 7.37576C82.122 8.40763 81.8784 9.28665 81.3912 10.0127C80.904 10.7388 80.2098 11.2675 79.3085 11.5987L82.3412 16.0892H80.3498ZM76.7324 10.3949C77.8895 10.3949 78.7726 10.1337 79.3815 9.61149C79.9905 9.08918 80.295 8.34396 80.295 7.37576C80.295 6.40764 79.9905 5.66557 79.3815 5.14971C78.7726 4.63377 77.8895 4.37576 76.7324 4.37576H73.6266V10.3949H76.7324ZM90.8001 16.242C89.5212 16.242 88.3672 15.9458 87.338 15.3535C86.3088 14.7611 85.5019 13.9459 84.9173 12.9077C84.3326 11.8694 84.0403 10.7007 84.0403 9.40126C84.0403 8.10193 84.3326 6.9331 84.9173 5.89492C85.5019 4.85667 86.3119 4.0414 87.3472 3.44904C88.3824 2.85667 89.5395 2.56049 90.8184 2.56049C91.8171 2.56049 92.7306 2.73569 93.5588 3.08595C94.387 3.43628 95.0934 3.95537 95.6781 4.64329L94.4906 5.84715C93.5284 4.78977 92.3286 4.26116 90.8914 4.26116C89.9414 4.26116 89.0827 4.48406 88.3154 4.92995C87.5481 5.37576 86.9482 5.99047 86.5158 6.77387C86.0835 7.55734 85.8673 8.43314 85.8673 9.40126C85.8673 10.3695 86.0835 11.2453 86.5158 12.0286C86.9482 12.8121 87.5481 13.4268 88.3154 13.8726C89.0827 14.3185 89.9414 14.5414 90.8914 14.5414C92.3165 14.5414 93.5162 14.0064 94.4906 12.9363L95.6781 14.1401C95.0934 14.828 94.384 15.3503 93.5496 15.707C92.7154 16.0637 91.7988 16.242 90.8001 16.242ZM109.289 2.71334V16.0892H107.462V10.1273H100.118V16.0892H98.2906V2.71334H100.118V8.46493H107.462V2.71334H109.289ZM113.126 2.71334H114.953V16.0892H113.126V2.71334ZM121.329 4.37576H116.944V2.71334H127.522V4.37576H123.137V16.0892H121.329V4.37576ZM138.794 14.4268V16.0892H129.513V2.71334H138.539V4.37576H131.34V8.48406H137.753V10.1083H131.34V14.4268H138.794ZM147.418 16.242C146.139 16.242 144.985 15.9458 143.956 15.3535C142.926 14.7611 142.12 13.9459 141.535 12.9077C140.95 11.8694 140.658 10.7007 140.658 9.40126C140.658 8.10193 140.95 6.9331 141.535 5.89492C142.12 4.85667 142.929 4.0414 143.965 3.44904C145 2.85667 146.157 2.56049 147.436 2.56049C148.435 2.56049 149.348 2.73569 150.176 3.08595C151.005 3.43628 151.711 3.95537 152.296 4.64329L151.108 5.84715C150.146 4.78977 148.946 4.26116 147.509 4.26116C146.559 4.26116 145.7 4.48406 144.933 4.92995C144.166 5.37576 143.566 5.99047 143.133 6.77387C142.701 7.55734 142.485 8.43314 142.485 9.40126C142.485 10.3695 142.701 11.2453 143.133 12.0286C143.566 12.8121 144.166 13.4268 144.933 13.8726C145.7 14.3185 146.559 14.5414 147.509 14.5414C148.934 14.5414 150.134 14.0064 151.108 12.9363L152.296 14.1401C151.711 14.828 151.002 15.3503 150.167 15.707C149.333 16.0637 148.416 16.242 147.418 16.242ZM157.302 4.37576H152.917V2.71334H163.495V4.37576H159.11V16.0892H157.302V4.37576ZM169.049 16.242C168.087 16.242 167.158 16.086 166.263 15.7739C165.368 15.4618 164.664 15.0573 164.153 14.5605L164.829 13.0701C165.316 13.5287 165.94 13.9013 166.701 14.1879C167.463 14.4745 168.245 14.6179 169.049 14.6179C170.109 14.6179 170.9 14.4299 171.424 14.0542C171.948 13.6783 172.21 13.1784 172.21 12.5541C172.21 12.0956 172.067 11.7229 171.78 11.4363C171.494 11.1497 171.141 10.93 170.721 10.7771C170.3 10.6242 169.707 10.4523 168.939 10.2612C167.977 10.0191 167.201 9.7771 166.61 9.53506C166.019 9.29296 165.514 8.92035 165.094 8.41716C164.673 7.91397 164.463 7.23565 164.463 6.38213C164.463 5.66879 164.643 5.0255 165.002 4.45218C165.362 3.87895 165.907 3.42038 166.637 3.07642C167.368 2.73246 168.276 2.56049 169.359 2.56049C170.115 2.56049 170.858 2.66242 171.588 2.8662C172.319 3.07005 172.946 3.36308 173.47 3.74522L172.867 5.27391C172.331 4.9172 171.759 4.64652 171.15 4.46179C170.541 4.27706 169.944 4.18473 169.359 4.18473C168.324 4.18473 167.548 4.38213 167.03 4.77709C166.513 5.17198 166.254 5.68155 166.254 6.30571C166.254 6.76435 166.4 7.13695 166.692 7.42353C166.984 7.71019 167.347 7.9331 167.779 8.09233C168.212 8.25156 168.799 8.42038 169.542 8.59874C170.504 8.84077 171.278 9.0828 171.862 9.32483C172.447 9.56686 172.95 9.93632 173.37 10.4331C173.79 10.9299 174 11.5987 174 12.4395C174 13.1401 173.817 13.7802 173.452 14.3599C173.087 14.9395 172.532 15.3981 171.789 15.7357C171.046 16.0733 170.133 16.242 169.049 16.242Z" fill="white"></path> </svg> 