<?xml version="1.0" encoding="UTF-8"?> <svg xmlns="http://www.w3.org/2000/svg" width="56" height="56" viewBox="0 0 56 56" fill="none"> <circle cx="28" cy="28" r="28" fill="#1C1C1D"></circle> <path fill-rule="evenodd" clip-rule="evenodd" d="M0 28C0 43.464 12.536 56 28 56C43.464 56 56 43.464 56 28C56 12.536 43.464 0 28 0C12.536 0 0 12.536 0 28ZM22.8666 40.8333L23.343 33.6959L23.3426 33.6956L36.3263 21.9788C36.8962 21.4731 36.2019 21.2265 35.4455 21.6852L19.4218 31.7944L12.5004 29.6341C11.0057 29.1764 10.9949 28.1493 12.836 27.4109L39.807 17.011C41.0388 16.4517 42.2278 17.3069 41.7575 19.1922L37.1643 40.8369C36.8436 42.375 35.9142 42.7429 34.6266 42.0324L27.6298 36.8631L24.2666 40.1333C24.256 40.1436 24.2454 40.1539 24.2349 40.1641C23.8588 40.5303 23.5476 40.8333 22.8666 40.8333Z" fill="white"></path> </svg> 