<?xml version="1.0" encoding="UTF-8"?> <svg xmlns="http://www.w3.org/2000/svg" width="32" height="32" viewBox="0 0 32 32" fill="none"> <path fill-rule="evenodd" clip-rule="evenodd" d="M0 16C0 24.8366 7.16344 32 16 32C24.8366 32 32 24.8366 32 16C32 7.16344 24.8366 0 16 0C7.16344 0 0 7.16344 0 16ZM26.0414 15.3875C26.0393 20.632 21.7729 24.8994 16.5273 24.9015H16.5234C14.9311 24.901 13.3665 24.5015 11.9768 23.7435L6.93327 25.0665L8.28301 20.1364C7.45042 18.6935 7.01232 17.0569 7.01303 15.38C7.01512 10.1343 11.2831 5.86654 16.5272 5.86654C19.0724 5.86764 21.4611 6.85845 23.2574 8.65681C25.0537 10.4551 26.0424 12.8454 26.0414 15.3875Z" fill="white"></path> <path fill-rule="evenodd" clip-rule="evenodd" d="M9.21759 22.8064L12.2105 22.0213L12.4993 22.1926C13.7134 22.9131 15.1051 23.2944 16.5241 23.2949H16.5273C20.8858 23.2949 24.4332 19.7474 24.435 15.3871C24.4358 13.2741 23.614 11.2874 22.121 9.79267C20.6281 8.29794 18.6426 7.47437 16.5304 7.47363C12.1686 7.47363 8.62112 11.0207 8.61939 15.3807C8.61877 16.8749 9.03685 18.3301 9.82843 19.5891L10.0164 19.8883L9.21759 22.8064ZM20.995 17.4362C21.1608 17.5163 21.2727 17.5704 21.3205 17.6502C21.38 17.7494 21.38 18.2253 21.182 18.7807C20.9838 19.336 20.0341 19.8428 19.5773 19.911C19.1677 19.9723 18.6495 19.9978 18.08 19.8168C17.7347 19.7073 17.2919 19.561 16.7248 19.3161C14.4961 18.3538 12.99 16.1937 12.7054 15.7855C12.6855 15.7569 12.6715 15.7369 12.6637 15.7265L12.6618 15.724C12.536 15.5561 11.693 14.4314 11.693 13.2673C11.693 12.1723 12.2309 11.5984 12.4785 11.3342C12.4955 11.3161 12.5111 11.2994 12.5251 11.2842C12.743 11.0462 13.0005 10.9867 13.159 10.9867C13.3174 10.9867 13.4761 10.9881 13.6146 10.9951C13.6317 10.9959 13.6495 10.9958 13.6679 10.9957C13.8064 10.9949 13.9791 10.9939 14.1495 11.4032C14.215 11.5607 14.3109 11.7942 14.4121 12.0404C14.6167 12.5384 14.8427 13.0887 14.8824 13.1683C14.9419 13.2873 14.9815 13.4261 14.9022 13.5848C14.8903 13.6086 14.8793 13.6311 14.8688 13.6525C14.8093 13.774 14.7655 13.8634 14.6645 13.9813C14.6248 14.0277 14.5838 14.0777 14.5427 14.1277C14.4609 14.2273 14.3791 14.3269 14.3079 14.3978C14.1889 14.5164 14.065 14.645 14.2037 14.883C14.3424 15.121 14.8195 15.8994 15.5262 16.5298C16.2859 17.2074 16.9461 17.4938 17.2808 17.639C17.3462 17.6673 17.3991 17.6903 17.4379 17.7097C17.6756 17.8288 17.8143 17.8088 17.9529 17.6502C18.0916 17.4916 18.5472 16.9561 18.7057 16.7181C18.8641 16.4802 19.0227 16.5198 19.2405 16.5991C19.4585 16.6785 20.6272 17.2536 20.865 17.3726C20.9114 17.3958 20.9547 17.4168 20.995 17.4362Z" fill="white"></path> </svg> 