<?xml version="1.0" encoding="UTF-8"?> <svg xmlns="http://www.w3.org/2000/svg" width="32" height="32" viewBox="0 0 32 32" fill="none"> <circle cx="16" cy="16" r="16" fill="white"></circle> <path fill-rule="evenodd" clip-rule="evenodd" d="M32 16.0175C32.0142 7.18495 24.8487 0.0076017 16.0085 4.60952e-06C7.17507 -0.00664284 -0.000948654 7.17735 9.40653e-08 15.9995C0.000951019 24.8216 7.14752 31.9714 15.9734 31.9999C24.7993 32.0284 31.9857 24.8501 32 16.0175ZM7.47996 21.6061C7.36084 21.6002 7.24219 21.5869 7.12472 21.5662L7.12093 10.4384C7.22504 10.4181 7.33038 10.4048 7.43627 10.3985C7.94829 10.4032 8.46032 10.406 8.9723 10.4088H8.97247C10.3191 10.416 11.6655 10.4233 13.0109 10.4659C14.333 10.5068 15.3503 11.2959 15.696 12.4288C15.861 12.9712 15.8508 13.5518 15.667 14.0881C15.4832 14.6243 15.1351 15.0891 14.6721 15.4164L14.3539 15.6377C14.4224 15.6819 14.4931 15.7224 14.5657 15.7592C15.9762 16.3708 16.5965 17.574 16.2754 19.0668C15.9601 20.5245 14.8469 21.496 13.3405 21.5359C11.9202 21.5738 10.4994 21.5837 9.07848 21.5936H9.07833H9.07819H9.07805C8.54536 21.5973 8.01266 21.6009 7.47996 21.6061ZM24.8767 17.5427C24.8746 17.6619 24.8724 17.7861 24.8724 17.9177L19.2741 17.9187C19.237 18.5027 19.4432 18.9452 19.8069 19.3507C20.373 19.9813 22.2062 19.9984 22.4779 18.9538C22.4909 18.9173 22.5125 18.8845 22.541 18.8582C22.5694 18.8319 22.6038 18.8129 22.6413 18.8028C23.3356 18.7962 24.0309 18.7962 24.767 18.7962C24.6131 19.799 24.1078 20.4827 23.3688 20.9803C22.7801 21.3861 22.0952 21.6302 21.3825 21.6883C20.6699 21.7465 19.9544 21.6165 19.3077 21.3114C18.6611 21.0064 18.1058 20.5369 17.6975 19.9501C17.2893 19.3632 17.0422 18.6794 16.9812 17.9671C16.8968 17.1885 16.9665 16.4008 17.1863 15.6491C17.6936 13.9786 19.1544 12.9331 20.9021 12.9682C22.3079 12.9967 23.4477 13.5228 24.255 14.7108C24.7071 15.3765 24.8202 16.1315 24.8724 16.9045C24.8842 17.1111 24.8806 17.3181 24.8767 17.5427V17.5427V17.5427ZM22.5586 11.9464H20.8936C20.3265 11.9464 19.7585 11.9493 19.1943 11.9531C18.7849 11.9512 18.7013 11.8667 18.7013 11.4488V11.1288C18.7032 10.879 18.8324 10.7489 19.0727 10.7489H22.7609C23.005 10.7489 23.1285 10.8828 23.1285 11.1288V11.3766C23.1228 11.8913 23.0696 11.9464 22.5586 11.9464ZM10.7055 16.7083H10.7054H10.7054C10.3722 16.6927 10.0376 16.677 9.70161 16.6566L9.69971 19.6783C9.73 19.6921 9.76192 19.702 9.79469 19.7078C9.97611 19.7078 10.1575 19.7089 10.3389 19.7101C10.7018 19.7124 11.0646 19.7148 11.4275 19.7078C11.9234 19.713 12.4192 19.6876 12.9121 19.6318C13.6282 19.5245 14.011 19.043 14.0471 18.3023C14.0823 17.5986 13.7042 16.9614 13.0317 16.8779C12.2635 16.7813 11.4883 16.745 10.7055 16.7083ZM9.6875 14.801V12.2759H10.2213C10.4346 12.2781 10.648 12.279 10.8615 12.28H10.8616C11.3817 12.2822 11.9019 12.2845 12.4211 12.3053C13.181 12.3367 13.617 12.7802 13.6407 13.5085C13.6645 14.2008 13.2209 14.7431 12.4895 14.7867C11.8492 14.824 11.2042 14.8161 10.5444 14.808L10.5441 14.808C10.2616 14.8045 9.97628 14.801 9.6875 14.801ZM19.3225 16.3385H22.626C22.6311 16.118 22.5919 15.8987 22.5108 15.6936C22.4297 15.4886 22.3083 15.3018 22.1538 15.1444C21.9993 14.987 21.8148 14.8622 21.6112 14.7773C21.4076 14.6923 21.1891 14.6491 20.9685 14.65C20.748 14.6473 20.5292 14.6894 20.3254 14.7739C20.1216 14.8583 19.9372 14.9833 19.7832 15.1412C19.6292 15.2991 19.509 15.4867 19.4298 15.6925C19.3506 15.8983 19.3141 16.1181 19.3225 16.3385Z" fill="#1C1C1D"></path> <circle cx="16" cy="16" r="15.5" stroke="white"></circle> </svg> 