<?xml version="1.0" encoding="UTF-8"?> <svg xmlns="http://www.w3.org/2000/svg" width="32" height="32" viewBox="0 0 32 32" fill="none"> <path fill-rule="evenodd" clip-rule="evenodd" d="M0 16C0 24.8366 7.16344 32 16 32C24.8366 32 32 24.8366 32 16C32 7.16344 24.8366 0 16 0C7.16344 0 0 7.16344 0 16ZM26.0414 15.3875C26.0393 20.632 21.7729 24.8994 16.5273 24.9015H16.5234C14.9311 24.901 13.3665 24.5015 11.9768 23.7435L6.93327 25.0665L8.28301 20.1364C7.45042 18.6935 7.01232 17.0569 7.01303 15.38C7.01512 10.1343 11.2831 5.86654 16.5272 5.86654C19.0724 5.86764 21.4611 6.85845 23.2574 8.65681C25.0537 10.4551 26.0424 12.8454 26.0414 15.3875Z" fill="#3C3C3C"></path> <path fill-rule="evenodd" clip-rule="evenodd" d="M9.21771 22.8064L12.2106 22.0213L12.4994 22.1926C13.7135 22.9131 15.1053 23.2944 16.5242 23.2949H16.5274C20.8859 23.2949 24.4333 19.7474 24.4351 15.3871C24.4359 13.2741 23.6142 11.2874 22.1212 9.79267C20.6282 8.29794 18.6427 7.47437 16.5306 7.47363C12.1687 7.47363 8.62124 11.0207 8.61951 15.3807C8.61889 16.8749 9.03697 18.3301 9.82855 19.5891L10.0166 19.8883L9.21771 22.8064ZM20.9951 17.4362C21.1609 17.5163 21.2729 17.5704 21.3207 17.6502C21.3801 17.7494 21.3801 18.2253 21.1821 18.7807C20.9839 19.336 20.0342 19.8428 19.5774 19.911C19.1679 19.9723 18.6496 19.9978 18.0801 19.8168C17.7348 19.7073 17.2921 19.561 16.7249 19.3161C14.4963 18.3538 12.9902 16.1937 12.7055 15.7855C12.6856 15.7569 12.6716 15.7369 12.6638 15.7265L12.6619 15.724C12.5361 15.5561 11.6932 14.4314 11.6932 13.2673C11.6932 12.1723 12.231 11.5984 12.4786 11.3342C12.4956 11.3161 12.5112 11.2994 12.5252 11.2842C12.7431 11.0462 13.0006 10.9867 13.1591 10.9867C13.3176 10.9867 13.4762 10.9881 13.6147 10.9951C13.6318 10.9959 13.6496 10.9958 13.668 10.9957C13.8065 10.9949 13.9792 10.9939 14.1496 11.4032C14.2151 11.5607 14.3111 11.7942 14.4122 12.0404C14.6168 12.5384 14.8428 13.0887 14.8825 13.1683C14.942 13.2873 14.9816 13.4261 14.9024 13.5848C14.8905 13.6086 14.8795 13.6311 14.869 13.6525C14.8094 13.774 14.7657 13.8634 14.6646 13.9813C14.6249 14.0277 14.5839 14.0777 14.5428 14.1277C14.461 14.2273 14.3793 14.3269 14.3081 14.3978C14.189 14.5164 14.0652 14.645 14.2038 14.883C14.3425 15.121 14.8196 15.8994 15.5263 16.5298C16.286 17.2074 16.9463 17.4938 17.2809 17.639C17.3463 17.6673 17.3992 17.6903 17.4381 17.7097C17.6757 17.8288 17.8144 17.8088 17.9531 17.6502C18.0917 17.4916 18.5473 16.9561 18.7058 16.7181C18.8642 16.4802 19.0228 16.5198 19.2406 16.5991C19.4586 16.6785 20.6274 17.2536 20.8651 17.3726C20.9115 17.3958 20.9549 17.4168 20.9951 17.4362Z" fill="#3C3C3C"></path> </svg> 