<?xml version="1.0" encoding="UTF-8"?> <svg xmlns="http://www.w3.org/2000/svg" width="32" height="32" viewBox="0 0 32 32" fill="none"> <circle cx="16" cy="16" r="16" fill="white"></circle> <path fill-rule="evenodd" clip-rule="evenodd" d="M16 32C24.8366 32 32 24.8366 32 16C32 7.16344 24.8366 0 16 0C7.16344 0 0 7.16344 0 16C0 24.8366 7.16344 32 16 32ZM24.8788 11C25.5413 11 25.6796 11.3446 25.5413 11.8126H25.5404C25.2629 13.1009 22.5963 16.8946 22.5963 16.8946C22.3647 17.2691 22.2722 17.4569 22.5963 17.8777C22.7109 18.0395 22.9549 18.2809 23.2339 18.5569C23.521 18.8409 23.8452 19.1617 24.1038 19.4703C25.0429 20.5391 25.7513 21.44 25.9496 22.0606C26.1296 22.6846 25.8163 23 25.1913 23H23.0038C22.4172 23 22.1222 22.6684 21.4844 21.9513C21.2143 21.6476 20.8827 21.2749 20.4414 20.8289C19.1431 19.5646 18.5872 19.4 18.2622 19.4C17.8214 19.4 17.6898 19.526 17.6898 20.1577V22.1403C17.6898 22.6846 17.5181 23 16.1273 23C13.8082 23 11.2624 21.578 9.45409 18.9551C6.74165 15.1143 6 12.2103 6 11.6257C6 11.2974 6.125 11 6.74998 11H8.93911C9.49826 11 9.70826 11.2469 9.91575 11.8597C10.9866 15.0089 12.7907 17.7611 13.5323 17.7611C13.8107 17.7611 13.9382 17.6317 13.9382 16.9177V13.6623C13.8882 12.7358 13.5677 12.335 13.3303 12.0382C13.1838 11.855 13.069 11.7114 13.069 11.5083C13.069 11.2606 13.2782 11 13.6257 11H17.0656C17.5289 11 17.6823 11.2503 17.6823 11.8126V16.1917C17.6823 16.6606 17.8914 16.8243 18.0306 16.8243C18.3089 16.8243 18.5406 16.6606 19.0506 16.1446C20.6264 14.3651 21.7388 11.6257 21.7388 11.6257C21.878 11.2974 22.1347 11 22.6913 11H24.8788Z" fill="#1C1C1D"></path> <circle cx="16" cy="16" r="15.5" stroke="white"></circle> </svg> 