<?xml version="1.0" encoding="UTF-8"?> <svg xmlns="http://www.w3.org/2000/svg" width="56" height="56" viewBox="0 0 56 56" fill="none"> <circle cx="28" cy="28" r="28" fill="#1C1C1D"></circle> <path fill-rule="evenodd" clip-rule="evenodd" d="M0 28C0 43.464 12.536 56 28 56C43.464 56 56 43.464 56 28C56 12.536 43.464 0 28 0C12.536 0 0 12.536 0 28ZM45.5725 26.9285C45.5688 36.1064 38.1028 43.5742 28.9229 43.578H28.9161C26.1295 43.577 23.3915 42.8779 20.9596 41.5514L12.1334 43.8667L14.4954 35.239C13.0384 32.714 12.2717 29.8498 12.273 26.9153C12.2766 17.7354 19.7456 10.2667 28.9228 10.2667C33.3768 10.2686 37.5571 12.0026 40.7006 15.1497C43.8441 18.2967 45.5743 22.4798 45.5725 26.9285Z" fill="white"></path> <path fill-rule="evenodd" clip-rule="evenodd" d="M16.1307 39.9109L21.3683 38.537L21.8737 38.8369C23.9984 40.0977 26.4339 40.7649 28.9171 40.7658H28.9227C36.5501 40.7658 42.7581 34.5578 42.7611 26.9272C42.7626 23.2295 41.3245 19.7527 38.7118 17.1369C36.099 14.5211 32.6245 13.0799 28.9282 13.0786C21.2949 13.0786 15.0869 19.2861 15.0839 26.916C15.0828 29.5309 15.8144 32.0774 17.1997 34.2807L17.5287 34.8043L16.1307 39.9109ZM36.7413 30.5134C37.0314 30.6536 37.2274 30.7483 37.311 30.888C37.415 31.0614 37.415 31.8944 37.0685 32.8663C36.7217 33.838 35.0597 34.725 34.2603 34.8444C33.5436 34.9515 32.6366 34.9962 31.6401 34.6795C31.0358 34.4878 30.261 34.2318 29.2684 33.8032C25.3683 32.1191 22.7327 28.3391 22.2345 27.6247C22.1996 27.5746 22.1752 27.5396 22.1616 27.5214L22.1582 27.517C21.9381 27.2232 20.4629 25.2549 20.4629 23.2179C20.4629 21.3016 21.4042 20.2972 21.8375 19.8348C21.8672 19.8031 21.8945 19.774 21.9189 19.7473C22.3002 19.3308 22.751 19.2267 23.0283 19.2267C23.3056 19.2267 23.5833 19.2292 23.8256 19.2414C23.8556 19.2429 23.8867 19.2427 23.9188 19.2426C24.1613 19.2411 24.4635 19.2394 24.7617 19.9556C24.8764 20.2312 25.0442 20.6398 25.2212 21.0707C25.5792 21.9422 25.9747 22.9052 26.0443 23.0445C26.1484 23.2528 26.2177 23.4956 26.079 23.7734C26.0582 23.8151 26.0389 23.8544 26.0205 23.8919C25.9164 24.1046 25.8398 24.261 25.663 24.4674C25.5935 24.5485 25.5216 24.636 25.4498 24.7235C25.3067 24.8978 25.1636 25.0721 25.039 25.1962C24.8307 25.4037 24.6139 25.6288 24.8566 26.0453C25.0992 26.4618 25.9342 27.824 27.1709 28.9272C28.5004 30.113 29.6558 30.6142 30.2415 30.8683C30.3559 30.9179 30.4485 30.958 30.5165 30.9921C30.9323 31.2004 31.175 31.1655 31.4177 30.888C31.6604 30.6103 32.4577 29.6731 32.735 29.2567C33.0123 28.8404 33.2897 28.9097 33.671 29.0485C34.0524 29.1875 36.0977 30.1938 36.5138 30.402C36.595 30.4427 36.6709 30.4794 36.7413 30.5134Z" fill="white"></path> </svg> 