<?xml version="1.0" encoding="UTF-8"?> <svg xmlns="http://www.w3.org/2000/svg" width="32" height="32" viewBox="0 0 32 32" fill="none"> <circle cx="16" cy="16" r="16" fill="#1C1C1D"></circle> <path fill-rule="evenodd" clip-rule="evenodd" d="M0 16C0 24.8366 7.16344 32 16 32C24.8366 32 32 24.8366 32 16C32 7.16344 24.8366 0 16 0C7.16344 0 0 7.16344 0 16ZM26.0414 15.3875C26.0393 20.632 21.7729 24.8993 16.5273 24.9015H16.5234C14.9311 24.9009 13.3665 24.5014 11.9768 23.7434L6.93327 25.0665L8.28301 20.1364C7.45042 18.6935 7.01232 17.0568 7.01303 15.38C7.01512 10.1343 11.2831 5.86646 16.5272 5.86646C19.0724 5.86755 21.4611 6.85837 23.2574 8.65673C25.0537 10.455 26.0424 12.8453 26.0414 15.3875Z" fill="white"></path> <path fill-rule="evenodd" clip-rule="evenodd" d="M9.21771 22.8064L12.2106 22.0213L12.4994 22.1926C13.7135 22.9131 15.1053 23.2944 16.5242 23.2949H16.5274C20.8859 23.2949 24.4333 19.7474 24.4351 15.3871C24.4359 13.2741 23.6142 11.2874 22.1212 9.79267C20.6282 8.29794 18.6427 7.47437 16.5306 7.47363C12.1687 7.47363 8.62124 11.0207 8.61951 15.3807C8.61889 16.8749 9.03697 18.3301 9.82855 19.5891L10.0166 19.8883L9.21771 22.8064ZM20.9951 17.4361C21.1609 17.5162 21.2729 17.5704 21.3207 17.6502C21.3801 17.7493 21.3801 18.2252 21.1821 18.7806C20.9839 19.3359 20.0342 19.8427 19.5774 19.911C19.1679 19.9722 18.6496 19.9977 18.0801 19.8168C17.7348 19.7072 17.2921 19.5609 16.7249 19.316C14.4963 18.3537 12.9902 16.1937 12.7055 15.7854C12.6856 15.7568 12.6716 15.7368 12.6638 15.7264L12.6619 15.7239C12.5361 15.556 11.6932 14.4313 11.6932 13.2673C11.6932 12.1722 12.231 11.5983 12.4786 11.3341C12.4956 11.316 12.5112 11.2993 12.5252 11.2841C12.7431 11.0461 13.0006 10.9866 13.1591 10.9866C13.3176 10.9866 13.4762 10.988 13.6147 10.995C13.6318 10.9959 13.6496 10.9957 13.668 10.9956C13.8065 10.9948 13.9792 10.9938 14.1496 11.4031C14.2151 11.5606 14.3111 11.7941 14.4122 12.0403C14.6168 12.5384 14.8428 13.0886 14.8825 13.1682C14.942 13.2872 14.9816 13.426 14.9024 13.5847C14.8905 13.6085 14.8795 13.631 14.869 13.6524C14.8094 13.7739 14.7657 13.8633 14.6646 13.9813C14.6249 14.0276 14.5839 14.0776 14.5428 14.1276C14.461 14.2272 14.3793 14.3268 14.3081 14.3978C14.189 14.5163 14.0652 14.6449 14.2038 14.8829C14.3425 15.1209 14.8196 15.8993 15.5263 16.5297C16.286 17.2073 16.9463 17.4937 17.2809 17.6389C17.3463 17.6672 17.3992 17.6902 17.4381 17.7096C17.6757 17.8287 17.8144 17.8088 17.9531 17.6502C18.0917 17.4915 18.5473 16.956 18.7058 16.718C18.8642 16.4801 19.0228 16.5197 19.2406 16.599C19.4586 16.6784 20.6274 17.2535 20.8651 17.3725C20.9115 17.3957 20.9549 17.4167 20.9951 17.4361Z" fill="white"></path> </svg> 